<svg xmlns="http://www.w3.org/2000/svg" viewBox="0 0 1200 760" role="img" aria-labelledby="title desc">
  <title id="title">Engineering project briefing</title>
  <desc id="desc">A professional meeting table with engineering drawings, laptops, and bureau documents.</desc>
  <defs>
    <linearGradient id="bg" x1="0" x2="1" y1="0" y2="1">
      <stop offset="0" stop-color="#073b73"/>
      <stop offset="1" stop-color="#0f5ea8"/>
    </linearGradient>
    <linearGradient id="paper" x1="0" x2="1" y1="0" y2="1">
      <stop offset="0" stop-color="#ffffff"/>
      <stop offset="1" stop-color="#eaf4ff"/>
    </linearGradient>
  </defs>
  <rect width="1200" height="760" fill="url(#bg)"/>
  <circle cx="1040" cy="110" r="210" fill="#f8c12c" opacity=".16"/>
  <circle cx="120" cy="690" r="260" fill="#071d35" opacity=".42"/>
  <rect x="92" y="116" width="1016" height="528" rx="28" fill="#ffffff" opacity=".12"/>
  <rect x="155" y="168" width="430" height="310" rx="18" fill="url(#paper)"/>
  <path d="M205 402 309 290l72 68 117-132" fill="none" stroke="#0f5ea8" stroke-width="15" stroke-linecap="round" stroke-linejoin="round"/>
  <path d="M198 231h314M198 536h246M198 572h330" stroke="#0d2545" stroke-width="18" stroke-linecap="round" opacity=".18"/>
  <rect x="655" y="176" width="360" height="226" rx="18" fill="#071d35"/>
  <rect x="683" y="204" width="304" height="142" rx="10" fill="#eaf4ff"/>
  <path d="M716 310h238M716 270h180M716 230h112" stroke="#0f5ea8" stroke-width="12" stroke-linecap="round" opacity=".62"/>
  <rect x="724" y="433" width="230" height="46" rx="23" fill="#f8c12c"/>
  <rect x="671" y="514" width="326" height="88" rx="16" fill="#ffffff" opacity=".86"/>
  <path d="M711 548h164M711 574h236" stroke="#0d2545" stroke-width="13" stroke-linecap="round" opacity=".24"/>
  <path d="M115 640c148-76 324-94 528-44 161 40 301 36 442-13v177H115z" fill="#071d35" opacity=".3"/>
</svg>
